<?xml version="1.0" encoding="UTF-8" standalone="no"?>
<svg
   t="1764891371306"
   class="icon"
   viewBox="0 0 1024 1024"
   version="1.1"
   p-id="9180"
   width="200"
   height="200"
   id="svg1"
   sodipodi:docname="ai-summarize.svg"
   inkscape:version="1.3.2 (091e20e, 2023-11-25)"
   xmlns:inkscape="http://www.inkscape.org/namespaces/inkscape"
   xmlns:sodipodi="http://sodipodi.sourceforge.net/DTD/sodipodi-0.dtd"
   xmlns="http://www.w3.org/2000/svg"
   xmlns:svg="http://www.w3.org/2000/svg">
  <defs
     id="defs1" />
  <sodipodi:namedview
     id="namedview1"
     pagecolor="#ffffff"
     bordercolor="#666666"
     borderopacity="1.0"
     inkscape:showpageshadow="2"
     inkscape:pageopacity="0.0"
     inkscape:pagecheckerboard="0"
     inkscape:deskcolor="#d1d1d1"
     inkscape:zoom="3.075"
     inkscape:cx="100"
     inkscape:cy="99.837398"
     inkscape:window-width="1864"
     inkscape:window-height="1027"
     inkscape:window-x="60"
     inkscape:window-y="25"
     inkscape:window-maximized="1"
     inkscape:current-layer="svg1" />
  <path
     d="M 807.29855,514.49757 V 218.36679 q 0,-45.55858 -45.5586,-45.55858 H 215.03677 q -45.5586,0 -45.5586,45.55858 v 592.26154 q 0,45.55858 45.5586,45.55858 h 318.91019 a 45.558599,45.55858 0 1 1 0,91.11715 H 215.03677 q -56.60655,0 -96.65256,-40.02321 Q 78.360976,867.23486 78.360976,810.62833 V 218.36679 q 0,-56.60653 40.023234,-96.65252 40.04601,-40.023213 96.65256,-40.023213 h 546.70318 q 56.60656,0 96.65257,40.023213 40.02323,40.04599 40.02323,96.65252 v 296.13078 a 45.5586,45.558581 0 1 1 -91.1172,0 z M 488.38836,263.92538 h -182.2344 a 45.558599,45.55858 0 1 0 0,91.11715 h 182.2344 a 45.558599,45.55858 0 1 0 0,-91.11715 z M 716.18135,491.71827 A 45.558599,45.55858 0 0 0 670.62275,446.1597 H 306.15396 a 45.558599,45.55858 0 1 0 0,91.11715 h 364.46879 a 45.558599,45.55858 0 0 0 45.5586,-45.55858 z m -410.02739,227.7929 h 91.1172 a 45.558599,45.55858 0 1 0 0,-91.11716 h -91.1172 a 45.558599,45.55858 0 1 0 0,91.11716 z m 331.48437,84.73895 c -16.76556,-4.48751 -16.76556,-28.31465 0,-32.80217 l 8.24611,-2.23237 a 170.07025,170.07018 0 0 0 120.00135,-120.0013 l 2.20959,-8.2461 c 4.51029,-16.76556 28.33745,-16.76556 32.84775,0 l 2.20958,8.2461 a 170.07025,170.07018 0 0 0 120.00135,120.0013 l 8.22333,2.20959 c 16.78834,4.5103 16.78834,28.33744 0,32.84773 l -8.20055,2.2096 a 170.07025,170.07018 0 0 0 -120.0469,120.0013 l -2.18681,8.22332 c -4.5103,16.78833 -28.33746,16.78833 -32.84775,0 l -2.20959,-8.20054 A 170.07025,170.07018 0 0 0 645.88444,806.4825 l -8.24611,-2.2096 z"
     p-id="9181"
     id="path1"
     style="stroke-width:1.06778" />
</svg>
